<?xml version="1.0" ?><!DOCTYPE svg  PUBLIC '-//W3C//DTD SVG 1.1//EN'  'http://www.w3.org/Graphics/SVG/1.1/DTD/svg11.dtd'><svg height="100%" style="fill-rule:evenodd;clip-rule:evenodd;stroke-linejoin:round;stroke-miterlimit:2;" version="1.1" viewBox="0 0 24 24" width="100%" xml:space="preserve" xmlns="http://www.w3.org/2000/svg" xmlns:serif="http://www.serif.com/" xmlns:xlink="http://www.w3.org/1999/xlink"><g id="Icon"><path d="M20.75,7c0,-2.623 -2.127,-4.75 -4.75,-4.75c-2.443,0 -5.557,0 -8,0c-2.623,0 -4.75,2.127 -4.75,4.75c0,2.977 0,7.023 0,10c-0,2.623 2.127,4.75 4.75,4.75c2.443,0 5.557,0 8,0c2.623,-0 4.75,-2.127 4.75,-4.75l-0,-10Zm-1.5,0l0,10c0,1.795 -1.455,3.25 -3.25,3.25c-2.443,0 -5.557,0 -8,-0c-1.795,-0 -3.25,-1.455 -3.25,-3.25c0,-2.977 0,-7.023 -0,-10c-0,-1.795 1.455,-3.25 3.25,-3.25c2.443,0 5.557,0 8,0c1.795,0 3.25,1.455 3.25,3.25Z"/><path d="M8.995,9.25l6,0c0.414,0 0.75,-0.336 0.75,-0.75c0,-0.414 -0.336,-0.75 -0.75,-0.75l-6,-0c-0.414,0 -0.75,0.336 -0.75,0.75c0,0.414 0.336,0.75 0.75,0.75Z"/><path d="M9,12.75l6,0c0.414,0 0.75,-0.336 0.75,-0.75c0,-0.414 -0.336,-0.75 -0.75,-0.75l-6,0c-0.414,0 -0.75,0.336 -0.75,0.75c0,0.414 0.336,0.75 0.75,0.75Z"/><path d="M9,16.25l3,0c0.414,-0 0.75,-0.336 0.75,-0.75c-0,-0.414 -0.336,-0.75 -0.75,-0.75l-3,0c-0.414,-0 -0.75,0.336 -0.75,0.75c-0,0.414 0.336,0.75 0.75,0.75Z"/></g></svg>